<svg width="181" height="126" viewBox="0 0 181 126" fill="none" xmlns="http://www.w3.org/2000/svg">
<path d="M86.0939 33.7793H130.89C154.147 33.7793 173 52.6328 173 75.8897C173 99.1466 154.147 118 130.89 118H86.0939M65.4309 61.6552H19.2431M92.1713 61.6552H75.7624M86.0939 75.5931H38.9945M29.5746 75.5931H8M55.0994 88.9379H24.4088M92.1713 88.9379H65.4309M102.503 104.062H58.7459M44.1602 104.062H24.4088M75.7624 118H44.1602M102.503 48.0138H62.3923M50.2376 48.0138H29.5746M75.7624 33.7793H44.1602M162.669 32L168.138 37.3379" stroke="#5D5F69" stroke-width="6" stroke-linecap="round"/>
<path d="M145.033 58.0457L122.623 73.4944C120.239 75.1383 119.968 78.5585 122.064 80.5573C124.004 82.4073 127.113 82.1955 128.784 80.0995L145.753 58.8181C146.136 58.3379 145.538 57.6971 145.033 58.0457Z" fill="#5D5F69"/>
<rect x="111" y="15" width="29" height="9" rx="2" fill="#5D5F69"/>
</svg>
