<svg width="33" height="30" viewBox="0 0 33 30" fill="none" xmlns="http://www.w3.org/2000/svg"><path d="M30.3078 13.6364C30.3078 6.11727 24.2689 0 16.8462 0C9.42354 0 3.38469 6.11727 3.38469 13.6364H0.692383C0.692383 22.6582 7.94007 30 16.8462 30C25.7524 30 33.0001 22.6582 33.0001 13.6364H30.3078ZM16.8462 24.5455C10.907 24.5455 6.077 19.6527 6.077 13.6364H8.76931C8.76931 9.12545 12.3932 5.45455 16.8462 5.45455C20.1497 5.45455 22.9955 7.47545 24.2447 10.3582L8.80969 13.6364H25.2328H27.6155C27.6155 19.6527 22.7855 24.5455 16.8462 24.5455Z" fill="#0f0f16"></path></svg>