<svg xmlns="http://www.w3.org/2000/svg" width="33" height="30" viewBox="0 0 33 30" fill="none">
    <path d="M29.6154 13.6364C29.6154 6.11727 23.5765 0 16.1538 0C8.73115 0 2.69231 6.11727 2.69231 13.6364H0C0 22.6582 7.24769 30 16.1538 30C25.06 30 32.3077 22.6582 32.3077 13.6364H29.6154ZM16.1538 24.5455C10.2146 24.5455 5.38462 19.6527 5.38462 13.6364H8.07692C8.07692 9.12545 11.7008 5.45455 16.1538 5.45455C19.4573 5.45455 22.3031 7.47545 23.5523 10.3582L8.11731 13.6364H24.5404H26.9231C26.9231 19.6527 22.0931 24.5455 16.1538 24.5455Z" fill="#222222"/>
</svg>